<svg id="Capa_1" enable-background="new 0 0 512 512" height="512" viewBox="0 0 512 512" width="512" xmlns="http://www.w3.org/2000/svg"><g><g><path d="m298.874 20.312h63.264v146.057h-63.264z" fill="#fcdd2e" transform="matrix(.707 -.707 .707 .707 30.801 261.042)"/></g><g><path d="m343.622 128.345h63.264v19.489h-63.264z" fill="#f9c301" transform="matrix(.707 -.707 .707 .707 12.266 305.791)"/></g><g><path d="m38.304 383.28h242.439v90.915h-242.439z" fill="#8f818f"/></g><g><path d="m210.032 383.28h-101.016l10.101-222.235h80.813z" fill="#fbe77b"/></g><g><path d="m117.15 204.324c10.937 10.71 25.894 17.33 42.374 17.33s31.437-6.62 42.374-17.33l-1.967-43.28h-80.813z" fill="#fcdd2e"/></g><g><g><path d="m140.331 383.28 7.071-151.524h24.244l7.071 151.524z" fill="#f9c301"/></g></g><g><path d="m136.092 64.069h160.002v80.813h-160.002z" fill="#fbe77b" transform="matrix(.707 -.707 .707 .707 -10.583 183.401)"/></g><g><path d="m244.09 19.335-31.94 31.939c1.693 30.744 26.4 55.451 57.143 57.143l31.94-31.94z" fill="#fcdd2e"/></g><g><path d="m188.096 189.616 31.94-31.94c-1.693-30.744-26.4-55.451-57.143-57.143l-31.94 31.94z" fill="#fcdd2e"/></g><g><path d="m38.304 456.012h242.439v18.183h-242.439z" fill="#786e79"/></g><g><path d="m68.609 413.585h30.305v30.305h-30.305z" fill="#f59393" transform="matrix(0 1 -1 0 512.5 344.976)"/></g><g><path d="m125.178 413.585h30.305v30.305h-30.305z" fill="#6df3bf" transform="matrix(0 1 -1 0 569.069 288.407)"/></g><g><path d="m8 474.195h303.049v30.305h-303.049z" fill="#b1abb5"/></g><g><path d="m280.743 474.195h30.305v30.305h-30.305z" fill="#8f818f"/></g><g><circle cx="159.524" cy="161.045" fill="#eaeaea" r="40.407"/></g><g><circle cx="159.524" cy="161.045" fill="#786e79" r="15.152"/></g><g><circle cx="272.662" cy="47.907" fill="#eaeaea" r="40.407"/></g><g><circle cx="272.662" cy="47.907" fill="#786e79" r="15.152"/></g><g><g><g><path d="m382.145 144.98 35.714-35.715 32.143 3.572 53.998 53.998-12.143 45-48.283-48.284-21.429 21.429z" fill="#786e79"/></g><g><path d="m382.145 144.98-35.715 35.715 3.571 32.143 53.998 53.998 45-12.143-48.284-48.284 21.429-21.429c11.046-11.046 11.046-28.955 0-40-11.045-11.046-28.954-11.046-39.999 0z" fill="#b1abb5"/></g></g></g><g><path d="m61.109 443.89c0 4.142 3.358 7.5 7.5 7.5h30.305c4.142 0 7.5-3.358 7.5-7.5v-30.305c0-4.142-3.358-7.5-7.5-7.5h-30.305c-4.142 0-7.5 3.358-7.5 7.5zm15-22.805h15.305v15.305h-15.305z"/><path d="m257.939 443.89v-30.305c0-4.142-3.358-7.5-7.5-7.5s-7.5 3.358-7.5 7.5v30.305c0 4.142 3.358 7.5 7.5 7.5s7.5-3.358 7.5-7.5z"/><path d="m155.484 451.39c4.142 0 7.5-3.358 7.5-7.5v-30.305c0-4.142-3.358-7.5-7.5-7.5h-30.305c-4.142 0-7.5 3.358-7.5 7.5v30.305c0 4.142 3.358 7.5 7.5 7.5zm-22.806-30.305h15.305v15.305h-15.305z"/><path d="m231.674 443.89v-30.305c0-4.142-3.358-7.5-7.5-7.5s-7.5 3.358-7.5 7.5v30.305c0 4.142 3.358 7.5 7.5 7.5s7.5-3.358 7.5-7.5z"/><path d="m205.41 443.89v-30.305c0-4.142-3.358-7.5-7.5-7.5s-7.5 3.358-7.5 7.5v30.305c0 4.142 3.358 7.5 7.5 7.5s7.5-3.358 7.5-7.5z"/><path d="m159.524 183.697c12.491 0 22.652-10.162 22.652-22.652s-10.162-22.653-22.652-22.653-22.652 10.162-22.652 22.653 10.161 22.652 22.652 22.652zm0-30.305c4.22 0 7.652 3.433 7.652 7.653s-3.433 7.652-7.652 7.652-7.652-3.433-7.652-7.652 3.432-7.653 7.652-7.653z"/><path d="m272.662 70.559c12.491 0 22.652-10.162 22.652-22.652s-10.162-22.653-22.652-22.653-22.652 10.162-22.652 22.653 10.161 22.652 22.652 22.652zm0-30.305c4.22 0 7.652 3.433 7.652 7.653s-3.433 7.652-7.652 7.652-7.652-3.433-7.652-7.652 3.432-7.653 7.652-7.653z"/><path d="m509.303 161.531-53.998-53.998c-1.204-1.204-2.782-1.963-4.475-2.151l-32.144-3.571c-2.263-.252-4.521.54-6.131 2.151l-8.044 8.044-97.974-97.974c-.187-.187-.381-.361-.582-.524-8.626-8.352-20.366-13.508-33.293-13.508-12.928 0-24.668 5.156-33.295 13.509-.2.163-113.718 113.661-113.718 113.661-.186.186-.36.38-.523.58-8.277 8.548-13.407 20.154-13.5 32.943 0 .004-.001.008-.001.012l-9.776 215.076h-12.853c-4.142 0-7.5 3.358-7.5 7.5s3.358 7.5 7.5 7.5h184.247v75.915h-227.439v-75.916h8.156c4.142 0 7.5-3.358 7.5-7.5s-3.358-7.5-7.5-7.5h-15.656c-4.142 0-7.5 3.358-7.5 7.5v83.415h-22.804c-4.142 0-7.5 3.358-7.5 7.5v30.305c0 4.142 3.358 7.5 7.5 7.5h209.14c4.142 0 7.5-3.358 7.5-7.5s-3.358-7.5-7.5-7.5h-201.64v-15.305h288.049v15.305h-51.4c-4.142 0-7.5 3.358-7.5 7.5s3.358 7.5 7.5 7.5h58.9c4.142 0 7.5-3.358 7.5-7.5v-30.305c0-4.142-3.358-7.5-7.5-7.5h-22.805v-83.415c0-4.142-3.358-7.5-7.5-7.5h-63.544l-8.9-195.762 76.771-76.771 64.1 64.1-8.044 8.044c-1.611 1.611-2.402 3.867-2.151 6.131l3.572 32.143c.188 1.693.947 3.271 2.151 4.475l13.364 13.365c2.928 2.93 7.677 2.929 10.606 0s2.929-7.677 0-10.606l-11.504-11.504-2.883-25.946 33.166-33.166c8.103-8.104 21.289-8.104 29.394 0 8.104 8.104 8.104 21.29 0 29.394l-21.429 21.429c-1.407 1.406-2.197 3.314-2.197 5.303s.79 3.897 2.197 5.303l39.117 39.117-28.295 7.635-12.762-12.762c-2.929-2.929-7.678-2.929-10.606 0-2.929 2.929-2.929 7.678 0 10.606l15.83 15.83c2.246 1.967 4.665 2.613 7.257 1.938l45-12.143c2.584-.698 4.602-2.72 5.292-5.307.69-2.586-.05-5.345-1.943-7.238l-42.98-42.98 32.251-32.251 42.98 42.98c3.872 3.873 10.98 2.446 12.544-3.349l12.143-45c.7-2.591-.04-5.359-1.938-7.257zm-348.443-48.359 63.93-63.93c.7 25.354 21.183 45.837 46.537 46.537l-63.93 63.93c-.7-25.354-21.183-45.837-46.537-46.537zm-1.336 14.966c18.145 0 32.906 14.762 32.906 32.907s-14.762 32.906-32.906 32.906c-18.145 0-32.907-14.762-32.907-32.906 0-18.145 14.762-32.907 32.907-32.907zm146.044-80.231c0 18.145-14.762 32.906-32.906 32.906-18.145 0-32.907-14.762-32.907-32.906 0-18.145 14.762-32.907 32.907-32.907s32.906 14.762 32.906 32.907zm-157.379 327.873 6.371-136.524h9.928l6.371 136.524zm37.686 0-6.737-144.374c-.187-4.002-3.485-7.15-7.492-7.15h-24.244c-4.006 0-7.305 3.148-7.492 7.15l-6.738 144.374h-16.308l8.248-181.456c8.716 9.009 20.917 14.627 34.412 14.627s25.696-5.618 34.411-14.627l8.248 181.456zm109.803-283.139s9.879-9.937 11.383-11.441c8.063-8.328 13.131-19.559 13.473-31.957l73.371 73.371-11.76 11.76-44.436-44.436c-2.929-2.929-7.678-2.929-10.606 0-2.929 2.929-2.929 7.678 0 10.606l44.436 44.436-11.761 11.761zm192.316 104.724-39.117-39.117c-2.929-2.929-7.678-2.929-10.606 0l-.851.851c-1.176-7.116-4.494-13.945-9.971-19.423-5.478-5.478-12.306-8.795-19.423-9.971l12.588-12.588 25.946 2.883 49.069 49.07z"/><circle cx="402.145" cy="164.98" r="10.102"/></g></g></svg>