<svg id="Layer_3" enable-background="new 0 0 64 64" height="512" viewBox="0 0 64 64" width="512" xmlns="http://www.w3.org/2000/svg"><path d="m10 58h44v4h-44z" fill="#312b25"/><path d="m10 58h41v4h-41z" fill="#62574a"/><path d="m55.07 44c1.13-2.172 1.962-4.523 2.445-7h4.485v-10h-4.485c-.678-3.481-2.047-6.716-3.964-9.55l3.449-3.45-7-7-3.45 3.45c-2.834-1.918-6.069-3.286-9.55-3.965v-4.485h-10v4.485c-3.481.678-6.716 2.047-9.55 3.964l-3.45-3.449-7 7 3.45 3.45c-1.918 2.834-3.286 6.069-3.965 9.55h-4.485v10h4.485c.483 2.477 1.315 4.828 2.445 7h.07 46z" fill="#535353"/><path d="m15.999 44h32.003c2.51-3.343 3.998-7.498 3.998-12 0-11.046-8.954-20-20-20s-20 8.954-20 20c0 4.502 1.488 8.657 3.999 12z" fill="#fff"/><path d="m30 12v6h4v-6" fill="#535353"/><path d="m18 34h12v10h-12z" fill="#f4b23e"/><path d="m34 34h12v10h-12z" fill="#f4b23e"/><path d="m38 34v4h4v-4" fill="#7a591f"/><path d="m22 34v4h4v-4" fill="#7a591f"/><path d="m55 58h-46c-3.866 0-7-3.134-7-7 0-3.866 3.134-7 7-7h46c3.866 0 7 3.134 7 7 0 3.866-3.134 7-7 7z" fill="#c3ad94"/><circle cx="55" cy="51" fill="#312b25" r="3"/><ellipse cx="53.5" cy="51" fill="#62574a" rx="1.5" ry="2.584"/><circle cx="45" cy="51" fill="#312b25" r="3"/><ellipse cx="43.5" cy="51" fill="#62574a" rx="1.5" ry="2.584"/><circle cx="35" cy="51" fill="#312b25" r="3"/><ellipse cx="33.5" cy="51" fill="#62574a" rx="1.5" ry="2.584"/><circle cx="25" cy="51" fill="#312b25" r="3"/><ellipse cx="23.5" cy="51" fill="#62574a" rx="1.5" ry="2.584"/><circle cx="15" cy="51" fill="#312b25" r="3"/><ellipse cx="13.5" cy="51" fill="#62574a" rx="1.5" ry="2.584"/><g fill="#fff"><path d="m15 55c-2.206 0-4-1.794-4-4s1.794-4 4-4 4 1.794 4 4-1.794 4-4 4zm0-6c-1.103 0-2 .897-2 2s.897 2 2 2 2-.897 2-2-.897-2-2-2z"/><path d="m2.294 49h12.706v-2h-11.74c-.422.604-.751 1.277-.966 2z"/><path d="m3.26 55h11.74v-2h-12.706c.215.723.544 1.396.966 2z"/></g><path d="m31 18h2v4h-2z" fill="#535353"/><path d="m34.707 28.707-1.414-1.414 1.707-1.707v-1.172l-1.414-1.414h-3.172l-1.414 1.414v1.172l1.707 1.707-1.414 1.414-2-2c-.188-.187-.293-.442-.293-.707v-2c0-.265.105-.52.293-.707l2-2c.187-.188.442-.293.707-.293h4c.265 0 .52.105.707.293l2 2c.188.187.293.442.293.707v2c0 .265-.105.52-.293.707z" fill="#535353"/></svg>