<svg height="512pt" viewBox="0 -35 512.00076 512" width="512pt" xmlns="http://www.w3.org/2000/svg"><path d="m317.6875 217.65625c0 36.1875-29.335938 65.523438-65.527344 65.523438-36.1875 0-65.523437-29.335938-65.523437-65.523438s29.335937-65.523438 65.523437-65.523438c36.191406 0 65.527344 29.335938 65.527344 65.523438zm0 0" fill="#cb7a6f"/><path d="m320.484375 419.660156c-32.304687 15.039063-66.785156 22.605469-101.386719 22.605469-27.796875 0-55.671875-4.871094-82.5625-14.679687-60.371094-22.019532-108.550781-66.21875-135.675781-124.46875-1.761719-3.8125-.210937-8.554688 3.6875-10.101563 25.375-10.074219 106.433594 96.664063 269.234375 57.480469 97.082031-23.367188 95.964844-121.085938 75.8125-164.371094-32.929688-70.726562-125.128906-67.160156-161.097656-6.871094-15.28125 25.617188-3.292969 77.082032 18.746094 85.117188 22.039062 8.035156 29.65625 6.453125 52.636718 1.710937.375-.082031.75-.164062 1.117188-.253906 22.128906-4.144531 38.867187-23.546875 38.867187-46.875 0-26.34375-21.359375-47.691406-47.703125-47.691406-5.015625 0-9.851562.769531-14.390625 2.21875-.082031.007812-.171875.007812-.253906.019531-4.171875.375-8.316406.121094-10.089844-3.679688-1.773437-3.808593-.121093-8.328124 3.675781-10.089843 16.628907-7.753907 35.285157-8.550781 52.519532-2.269531 17.226562 6.292968 30.984375 18.90625 38.726562 35.535156 9.464844 20.324218 10.4375 43.113281 2.753906 64.179687-7.679687 21.066407-23.101562 37.875-43.425781 47.339844-24.945312 11.609375-52.921875 12.816406-78.773437 3.394531-25.855469-9.433594-46.488282-28.363281-58.097656-53.308594-14.308594-30.722656-15.796876-65.171874-4.1875-97.019531 11.613281-31.835937 34.929687-57.25 65.652343-71.546875 78.324219-36.476562 171.726563-2.421875 208.195313 75.914063 45.140625 96.957031 2.976562 212.570312-93.980469 257.710937zm0 0" fill="#3f22a8"/><path d="m506.667969 178.578125c-4.011719 1.253906-8.265625-.984375-9.523438-4.988281-17.933593-57.460938-153.792969-123.019532-247.679687-94.636719-45.710938 13.820313-62.828125 18.289063-91.195313 60.785156-26.515625 39.71875-19.984375 63.324219-11.972656 97.90625 8.53125 36.820313 54.210937 77.878907 110.59375 67.0625 29.292969-5.621093 77.875-38.355469 62.316406-99.613281-5.773437-22.738281-26.171875-40.742188-51.847656-41.140625-13.324219-.203125-22.699219 6.558594-29.84375 9.546875-.160156.070312-.332031.140625-.496094.210938-18.917969 6.335937-32.554687 24.199218-32.554687 45.242187 0 26.347656 21.359375 47.695313 47.695312 47.695313 2.5625 0 5.066406-.203126 7.515625-.585938.074219.007812.144531.007812.203125.019531 4.164063.476563 8.269532.984375 9.515625 4.996094 1.257813 4-.984375 8.265625-4.984375 9.511719-17.511718 5.464844-36.105468 3.78125-52.347656-4.730469-16.242188-8.519531-28.199219-22.847656-33.667969-40.367187-6.679687-21.402344-4.621093-44.117188 5.792969-63.976563 10.40625-19.863281 27.925781-34.472656 49.328125-41.148437 26.273437-8.199219 54.15625-5.675782 78.527344 7.101562 24.378906 12.777344 42.3125 34.277344 50.511719 60.550781 10.089843 32.355469 6.992187 66.695313-8.753907 96.71875-15.738281 30.011719-42.214843 52.101563-74.566406 62.191407-15.402344 4.8125-31.179687 7.195312-46.863281 7.195312-25.007813 0-49.804688-6.058594-72.582032-17.996094-37.0625-19.433594-64.351562-52.140625-76.816406-92.09375-15.441406-49.46875-10.6875-101.976562 13.375-147.855468 24.058594-45.890626 64.546875-79.664063 114.003906-95.09375 61.34375-19.140626 126.464844-13.253907 183.371094 16.585937 56.902344 29.839844 98.792969 80.046875 117.933594 141.390625 1.246094 4-.984375 8.265625-4.988281 9.515625zm0 0" fill="#7925a5"/><path d="m283.691406 217.65625c0 17.414062-14.117187 31.53125-31.53125 31.53125-17.414062 0-31.527344-14.117188-31.527344-31.53125s14.113282-31.53125 31.527344-31.53125c17.414063 0 31.53125 14.117188 31.53125 31.53125zm0 0" fill="#fff75b"/><path d="m433.152344 182.09375c0 11.578125-9.386719 20.96875-20.96875 20.96875-11.578125 0-20.96875-9.390625-20.96875-20.96875 0-11.582031 9.390625-20.96875 20.96875-20.96875 11.582031 0 20.96875 9.386719 20.96875 20.96875zm0 0" fill="#ff7ae5"/><path d="m117.03125 121.300781c0 11.578125-9.386719 20.96875-20.96875 20.96875-11.578125 0-20.96875-9.390625-20.96875-20.96875 0-11.582031 9.390625-20.96875 20.96875-20.96875 11.582031 0 20.96875 9.386719 20.96875 20.96875zm0 0" fill="#fff75b"/><path d="m437.105469 402.734375h-4.476563v-4.476563c0-4.199218-3.402344-7.601562-7.597656-7.601562-4.199219 0-7.601562 3.402344-7.601562 7.601562v4.476563h-4.476563c-4.195313 0-7.597656 3.402344-7.597656 7.597656 0 4.199219 3.402343 7.601563 7.597656 7.601563h4.476563v4.476562c0 4.199219 3.402343 7.597656 7.601562 7.597656 4.195312 0 7.597656-3.398437 7.597656-7.597656v-4.476562h4.476563c4.199219 0 7.601562-3.402344 7.601562-7.601563 0-4.195312-3.402343-7.597656-7.601562-7.597656zm0 0" fill="#fff75b"/><path d="m84.851562 160.476562c-4.15625-.640624-8.027343 2.207032-8.667968 6.351563-4.515625 29.320313-2.289063 58.640625 6.613281 87.15625 8.964844 28.726563 25.839844 54.085937 48.804687 73.332031 20.785157 17.417969 45.617188 29.113282 72.148438 34.058594 2.261719 10.207031 11.378906 17.867188 22.257812 17.867188 10.199219 0 18.855469-6.734376 21.757813-15.988282 10.546875-1.046875 21.046875-3.171875 31.292969-6.367187 66.78125-20.835938 104.164062-92.121094 83.324218-158.914063-16.925781-54.21875-74.808593-84.5625-129.03125-67.652344-21.402343 6.675782-38.921874 21.289063-49.335937 41.148438-10.410156 19.855469-12.46875 42.578125-5.789063 63.980469 5.464844 17.511719 17.421876 31.847656 33.667969 40.367187 16.246094 8.515625 34.832031 10.195313 52.339844 4.730469 4.007813-1.25 6.242187-5.511719 4.992187-9.519531-1.253906-4.007813-5.515624-6.238282-9.519531-4.992188-13.632812 4.257813-28.105469 2.949219-40.757812-3.683594-12.648438-6.632812-21.960938-17.792968-26.214844-31.429687-5.46875-17.527344-3.78125-36.136719 4.742187-52.398437 8.527344-16.261719 22.875-28.226563 40.402344-33.695313 46.222656-14.417969 95.566406 11.453125 109.996094 57.667969 18.339844 58.792968-14.5625 121.542968-73.34375 139.878906-8.957031 2.792969-18.128906 4.679688-27.339844 5.65625-3.355468-8.417969-11.582031-14.386719-21.183594-14.386719-8.910156 0-16.636718 5.136719-20.386718 12.605469-23.617188-4.5625-45.71875-15.050781-64.253906-30.585938-20.730469-17.371093-35.964844-40.265624-44.0625-66.210937-8.203126-26.28125-10.253907-53.304687-6.097657-80.3125.636719-4.144531-2.207031-8.027344-6.355469-8.664063zm141.15625 188.367188c4.191407 0 7.597657 3.410156 7.597657 7.597656 0 4.191406-3.40625 7.601563-7.597657 7.601563-4.191406 0-7.601562-3.410157-7.601562-7.601563 0-4.1875 3.410156-7.597656 7.601562-7.597656zm0 0"/><path d="m511.484375 169.011719c-19.140625-61.335938-61.023437-111.550781-117.933594-141.386719-56.910156-29.835938-122.03125-35.726562-183.371093-16.582031-44.59375 13.910156-82.296876 43.136719-106.851563 82.625-2.363281-.636719-4.847656-.980469-7.410156-.980469-15.753907 0-28.570313 12.816406-28.570313 28.570312 0 15.75 12.816406 28.566407 28.570313 28.566407 15.753906 0 28.566406-12.816407 28.566406-28.566407 0-7.714843-3.078125-14.71875-8.0625-19.863281 22.632813-36.238281 57.300781-63.058593 98.285156-75.84375 57.464844-17.933593 118.476563-12.417969 171.789063 15.535157 53.3125 27.953124 92.546875 74.992187 110.484375 132.457031 1.015625 3.25 4.011719 5.335937 7.25 5.335937.75 0 1.511719-.109375 2.265625-.347656 4.007812-1.25 6.238281-5.511719 4.988281-9.519531zm-415.570313-34.386719c-7.371093 0-13.367187-5.996094-13.367187-13.367188 0-7.371093 5.996094-13.371093 13.367187-13.371093 7.375 0 13.371094 6 13.371094 13.371093 0 7.371094-5.996094 13.367188-13.371094 13.367188zm0 0"/><path d="m206.125 85.984375c-63.429688 29.527344-91.007812 105.152344-61.476562 168.582031 17.449218 37.46875 54.714843 59.523438 93.558593 59.523438 14.539063 0 29.300781-3.089844 43.324219-9.621094 41.953125-19.53125 60.199219-69.558594 40.667969-111.523438-15.984375-34.324218-56.914063-49.25-91.238281-33.269531-3.804688 1.773438-5.453126 6.292969-3.683594 10.097657 1.769531 3.804687 6.289062 5.457031 10.097656 3.683593 26.726562-12.441406 58.597656-.824219 71.042969 25.902344 15.996093 34.367187 1.054687 75.339844-33.300781 91.332031-43.902344 20.4375-96.25 1.351563-116.691407-42.542968-25.992187-55.828126-1.71875-122.394532 54.113281-148.386719 33.742188-15.710938 71.65625-17.546875 106.757813-5.171875 32.667969 11.519531 59.507813 34.144531 76.304687 64.113281-7.332031 5.179687-12.132812 13.710937-12.132812 23.347656 0 15.753907 12.816406 28.566407 28.570312 28.566407 15.75 0 28.566407-12.8125 28.566407-28.566407 0-15.753906-12.816407-28.566406-28.566407-28.566406-.648437 0-1.292968.027344-1.929687.070313-18.503906-34.332032-48.753906-60.25-85.757813-73.300782-38.871093-13.703125-80.855468-11.671875-118.226562 5.730469zm219.28125 96.0625c0 7.371094-5.996094 13.371094-13.367188 13.371094-7.375 0-13.371093-6-13.371093-13.371094s5.996093-13.367187 13.371093-13.367187c7.371094 0 13.367188 5.996093 13.367188 13.367187zm0 0"/><path d="m432.023438 230.363281c-.289063-4.1875-3.917969-7.351562-8.105469-7.058593-4.1875.289062-7.347657 3.917968-7.054688 8.105468 2.460938 35.679688-5.742187 70.96875-23.730469 102.050782-18.394531 31.789062-45.78125 56.816406-79.207031 72.378906-54.574219 25.410156-115.773437 28.042968-172.332031 7.421875-56.550781-20.625-101.691406-62.039063-127.105469-116.609375-1.769531-3.804688-6.289062-5.453125-10.09375-3.679688-3.804687 1.769532-5.453125 6.292969-3.683593 10.097656 27.125 58.25 75.308593 102.453126 135.675781 124.46875 26.890625 9.804688 54.761719 14.6875 82.554687 14.683594 34.605469 0 69.09375-7.566406 101.398438-22.605468 36.261718-16.882813 65.984375-44.042969 85.945312-78.542969 19.511719-33.714844 28.414063-72 25.738282-110.710938zm0 0"/><path d="m252.015625 178.484375c-21.578125 0-39.132813 17.550781-39.132813 39.128906s17.554688 39.128907 39.132813 39.128907c21.574219 0 39.128906-17.550782 39.128906-39.128907s-17.554687-39.128906-39.128906-39.128906zm0 63.058594c-13.199219 0-23.933594-10.734375-23.933594-23.929688 0-13.195312 10.734375-23.929687 23.933594-23.929687 13.195313 0 23.929687 10.734375 23.929687 23.929687 0 13.195313-10.734374 23.929688-23.929687 23.929688zm0 0"/><path d="m436.957031 402.691406h-4.476562v-4.476562c0-4.199219-3.402344-7.601563-7.597657-7.601563-4.199218 0-7.601562 3.402344-7.601562 7.601563v4.476562h-4.476562c-4.195313 0-7.597657 3.402344-7.597657 7.597656 0 4.199219 3.402344 7.601563 7.597657 7.601563h4.476562v4.476563c0 4.195312 3.402344 7.597656 7.601562 7.597656 4.195313 0 7.597657-3.402344 7.597657-7.597656v-4.476563h4.476562c4.199219 0 7.601563-3.402344 7.601563-7.601563 0-4.195312-3.402344-7.597656-7.601563-7.597656zm0 0"/><path d="m391.070312 59.230469c-4.199218 0-7.601562 3.402343-7.601562 7.601562v4.476563h-4.476562c-4.195313 0-7.597657 3.402344-7.597657 7.597656 0 4.199219 3.402344 7.601562 7.597657 7.601562h4.476562v4.476563c0 4.199219 3.402344 7.597656 7.601562 7.597656 4.195313 0 7.597657-3.398437 7.597657-7.597656v-4.476563h4.476562c4.199219 0 7.601563-3.402343 7.601563-7.601562 0-4.195312-3.402344-7.597656-7.601563-7.597656h-4.476562v-4.476563c0-4.195312-3.402344-7.601562-7.597657-7.601562zm0 0"/><path d="m69.46875 38.195312h4.476562v4.476563c0 4.195313 3.402344 7.597656 7.597657 7.597656 4.199219 0 7.601562-3.402343 7.601562-7.597656v-4.476563h4.476563c4.195312 0 7.597656-3.402343 7.597656-7.601562 0-4.195312-3.402344-7.597656-7.597656-7.597656h-4.476563v-4.476563c0-4.199219-3.402343-7.601562-7.601562-7.601562-4.195313 0-7.597657 3.402343-7.597657 7.601562v4.476563h-4.476562c-4.199219 0-7.601562 3.402344-7.601562 7.597656 0 4.199219 3.402343 7.601562 7.601562 7.601562zm0 0"/><path d="m62.871094 342.796875h4.476562v4.476563c0 4.199218 3.402344 7.601562 7.601563 7.601562 4.195312 0 7.597656-3.402344 7.597656-7.601562v-4.476563h4.476563c4.195312 0 7.597656-3.398437 7.597656-7.597656s-3.402344-7.597657-7.597656-7.597657h-4.476563v-4.476562c0-4.199219-3.402344-7.601562-7.597656-7.601562-4.199219 0-7.601563 3.402343-7.601563 7.601562v4.476562h-4.476562c-4.195313 0-7.597656 3.398438-7.597656 7.597657s3.398437 7.597656 7.597656 7.597656zm0 0"/><path d="m295.921875 261.800781c0 5.039063-4.082031 9.121094-9.121094 9.121094-5.035156 0-9.117187-4.082031-9.117187-9.121094 0-5.035156 4.082031-9.117187 9.117187-9.117187 5.039063 0 9.121094 4.082031 9.121094 9.117187zm0 0"/><path d="m261.132812 106.53125c0 5.035156-4.082031 9.117188-9.117187 9.117188-5.039063 0-9.121094-4.082032-9.121094-9.117188 0-5.039062 4.082031-9.121094 9.121094-9.121094 5.035156 0 9.117187 4.082032 9.117187 9.121094zm0 0"/><path d="m326.65625 371.640625c0 5.039063-4.082031 9.121094-9.117188 9.121094-5.035156 0-9.121093-4.082031-9.121093-9.121094 0-5.035156 4.085937-9.117187 9.121093-9.117187 5.035157 0 9.117188 4.082031 9.117188 9.117187zm0 0"/><path d="m57.128906 203.015625c0 5.039063-4.082031 9.121094-9.117187 9.121094-5.039063 0-9.121094-4.082031-9.121094-9.121094 0-5.035156 4.082031-9.117187 9.121094-9.117187 5.035156 0 9.117187 4.082031 9.117187 9.117187zm0 0"/><path d="m476.621094 212.136719c0 5.035156-4.082032 9.121093-9.121094 9.121093-5.035156 0-9.117188-4.085937-9.117188-9.121093 0-5.035157 4.082032-9.121094 9.117188-9.121094 5.039062 0 9.121094 4.085937 9.121094 9.121094zm0 0"/></svg>