<svg id="Layer_5" enable-background="new 0 0 64 64" height="512" viewBox="0 0 64 64" width="512" xmlns="http://www.w3.org/2000/svg"><g><g><g><path d="m10 53.86v8.14h-8v-1.8c0-2.98 2.2-5.51 5.15-5.94l2.85-.41z" fill="#e6e9ed"/></g><g><path d="m42 60.2v1.8h-8v-8.14-.01l2.85.41c2.95.43 5.15 2.96 5.15 5.94z" fill="#e6e9ed"/></g><g><path d="m34 53.86v8.14h-24v-8.14-.01l6-.85.88.88c1.36 1.36 3.2 2.12 5.12 2.12s3.76-.76 5.12-2.12l.88-.88 6 .85z" fill="#fcd770"/></g><g><path d="m27.17 48.88.83 4.12-.88.88c-1.36 1.36-3.2 2.12-5.12 2.12s-3.76-.76-5.12-2.12l-.88-.88.83-4.12c.41.18.84.34 1.27.49 1.26.42 2.58.63 3.9.63s2.64-.21 3.9-.63c.43-.15.86-.31 1.27-.49z" fill="#e6e9ed"/></g><g><path d="m8.1 37-6.1-1v-8l6-1v7 1.35c0 .56.03 1.11.1 1.65z" fill="#aab2bd"/></g><g><path d="m43 33.72v2.28l-7.1 1c.07-.54.1-1.09.1-1.65v-1.35-3.51c2 1.6 4.39 2.73 7 3.23z" fill="#aab2bd"/></g><g><path d="m31.17 24h-.01-5.16-4v-9c0-2.76 2.24-5 5-5 1.7 0 3.2.85 4.11 2.15-.72 1.81-1.11 3.78-1.11 5.85 0 2.12.41 4.15 1.17 6z" fill="#f0d0b4"/></g><g><path d="m12.12 16.08c-.08-.35-.12-.71-.12-1.08 0-2.76 2.24-5 5-5s5 2.24 5 5v9h-4-10v-3c0-2.46 1.78-4.51 4.12-4.92z" fill="#f0d0b4"/></g><g><path d="m31.17 24h-.01-23.16v3 7 1.35c0 .56.03 1.11.1 1.65.28 2.56 1.23 4.96 2.69 6.99 1.15 1.6 2.62 2.97 4.34 4l1.87-4.99h5 5l1.87 4.99c3.9-2.35 6.53-6.41 7.03-10.99.07-.54.1-1.09.1-1.65v-1.35-3.51c-2.12-1.7-3.8-3.93-4.83-6.49z" fill="#e6e9ed"/></g><g><path d="m26 24v2c0 1.1-.9 2-2 2h-4c-1.1 0-2-.9-2-2v-2h4z" fill="#b4dd7f"/></g><g><path d="m49 33.72c-.97.18-1.98.28-3 .28s-2.03-.1-3-.28c-2.61-.5-5-1.63-7-3.23-2.12-1.7-3.8-3.93-4.83-6.49-.76-1.85-1.17-3.88-1.17-6 0-2.07.39-4.04 1.11-5.85 2.33-5.95 8.12-10.15 14.89-10.15 8.84 0 16 7.16 16 16 0 7.82-5.6 14.32-13 15.72z" fill="#69d6f4"/></g><g><path d="m58 15v6l-1.6.57c-.15.43-.33.85-.53 1.26l.74 1.53-4.25 4.25-1.53-.74c-.41.2-.83.38-1.26.53l-.57 1.6h-6l-.57-1.6c-.43-.15-.85-.33-1.26-.53l-1.53.74-4.25-4.25.74-1.53c-.2-.41-.38-.83-.53-1.26l-1.6-.57v-6l1.6-.57c.15-.43.33-.85.53-1.26l-.74-1.53 4.25-4.25 1.53.74c.41-.2.83-.38 1.26-.53l.57-1.6h6l.57 1.6c.43.15.85.33 1.26.53l1.53-.74 4.25 4.25-.74 1.53c.2.41.38.83.53 1.26zm-5 3c0-3.87-3.13-7-7-7s-7 3.13-7 7 3.13 7 7 7 7-3.13 7-7z" fill="#ffc729"/></g><g><path d="m46 11c3.87 0 7 3.13 7 7s-3.13 7-7 7-7-3.13-7-7 3.13-7 7-7zm3 7c0-1.66-1.34-3-3-3s-3 1.34-3 3 1.34 3 3 3 3-1.34 3-3z" fill="#fcd770"/></g><g><path d="m50 42v16c0 2.21-1.79 4-4 4h-4v-1.8-18.2c0-1.1.9-2 2-2h1 2 1c1.1 0 2 .9 2 2z" fill="#969faa"/></g><g><path d="m49 33.72v4.28c0 1.1-.9 2-2 2h-2c-1.1 0-2-.9-2-2v-2-2.28c.97.18 1.98.28 3 .28s2.03-.1 3-.28z" fill="#ccd1d9"/></g><g><circle cx="29" cy="34" fill="#838f9b" r="3"/></g><g><path d="m27.17 48.88c-.41.18-.84.34-1.27.49-1.26.42-2.58.63-3.9.63s-2.64-.21-3.9-.63c-.43-.15-.86-.31-1.27-.49-.59-.26-1.16-.56-1.7-.89l1.87-4.99h5 5l1.87 4.99c-.54.33-1.11.63-1.7.89z" fill="#ff826e"/></g><g><circle cx="15" cy="34" fill="#838f9b" r="3"/></g></g><g><path d="m46 26c4.411 0 8-3.589 8-8s-3.589-8-8-8-8 3.589-8 8 3.589 8 8 8zm0-14c3.309 0 6 2.691 6 6s-2.691 6-6 6-6-2.691-6-6 2.691-6 6-6z"/><path d="m46 22c2.206 0 4-1.794 4-4s-1.794-4-4-4-4 1.794-4 4 1.794 4 4 4zm0-6c1.103 0 2 .897 2 2s-.897 2-2 2-2-.897-2-2 .897-2 2-2z"/><path d="m33 14.292v7.415l1.826.645c.062.157.127.314.196.471l-.836 1.748 5.244 5.244 1.748-.836c.156.069.313.135.471.196l.643 1.825h7.415l.645-1.826c.157-.062.314-.127.471-.196l1.748.836 5.244-5.244-.836-1.748c.069-.156.135-.313.196-.471l1.825-.643v-7.415l-1.826-.645c-.062-.157-.127-.314-.196-.471l.836-1.748-5.244-5.243-1.748.836c-.156-.069-.313-.135-.471-.196l-.643-1.826h-7.415l-.645 1.826c-.157.062-.314.127-.471.196l-1.747-.836-5.244 5.244.836 1.748c-.069.156-.135.313-.196.471zm2 1.416 1.392-.491.157-.458c.131-.383.292-.769.478-1.147l.213-.435-.638-1.334 3.242-3.242 1.334.638.435-.213c.378-.186.764-.346 1.147-.478l.458-.157.49-1.391h4.585l.491 1.392.458.157c.383.131.769.292 1.147.478l.435.213 1.334-.638 3.242 3.242-.638 1.334.213.435c.186.378.346.764.478 1.147l.157.458 1.39.49v4.585l-1.392.491-.157.458c-.131.383-.292.769-.478 1.147l-.213.435.638 1.334-3.242 3.242-1.334-.638-.435.213c-.378.186-.764.346-1.147.478l-.458.157-.49 1.39h-4.585l-.491-1.392-.458-.157c-.383-.131-.769-.292-1.147-.478l-.435-.213-1.334.638-3.242-3.242.638-1.334-.213-.435c-.186-.378-.346-.764-.478-1.147l-.157-.458-1.39-.49z"/><path d="m50 34.505c7.447-1.806 13-8.511 13-16.505 0-9.374-7.626-17-17-17-6.635 0-12.379 3.829-15.178 9.386-1.064-.881-2.41-1.386-3.822-1.386-2.086 0-3.924 1.071-5 2.69-1.076-1.619-2.914-2.69-5-2.69-3.309 0-6 2.691-6 6 0 .116.011.229.017.344-2.373.828-4.017 3.068-4.017 5.656v2 1 2.153l-6 1v9.697l6.2 1.016c.801 4.994 3.962 9.301 8.492 11.574l-.534 2.671-8.148 1.163c-3.427.49-6.01 3.469-6.01 6.93v2.796h40 2 3c2.757 0 5-2.243 5-5v-16c0-1.065-.562-1.997-1.401-2.529.248-.437.401-.934.401-1.471zm-3 4.495h-2c-.551 0-1-.449-1-1v-3.128c.657.077 1.322.128 2 .128s1.343-.051 2-.128v3.128c0 .551-.449 1-1 1zm-18.158 13.11-.534-2.671c4.525-2.27 7.682-6.57 8.489-11.556l5.203-.732v.849c0 .537.153 1.034.401 1.471-.839.532-1.401 1.464-1.401 2.529v13.329c-1.049-1.078-2.439-1.83-4.01-2.054zm-12.478-4.567 1.329-3.543h8.614l1.329 3.543c-.653.342-1.338.637-2.055.876-2.313.771-4.85.771-7.162 0-.716-.239-1.402-.533-2.055-.876zm2.494-14.543c-.447-1.72-2-3-3.858-3s-3.411 1.28-3.858 3h-2.142v-8h8v1c0 1.654 1.346 3 3 3h4c1.654 0 3-1.346 3-3v-1h3.526c1.043 2.297 2.576 4.322 4.474 5.938v2.062h-2.142c-.447-1.72-2-3-3.858-3s-3.411 1.28-3.858 3h-2.142-2zm-1.858 1c0 1.103-.897 2-2 2s-2-.897-2-2 .897-2 2-2 2 .897 2 2zm8-9v1c0 .551-.449 1-1 1h-4c-.551 0-1-.449-1-1v-1zm17 10.131-5.019.707c.005-.163.019-.323.019-.487v-2.955c1.523.956 3.205 1.674 5 2.109zm-11-1.131c0 1.103-.897 2-2 2s-2-.897-2-2 .897-2 2-2 2 .897 2 2zm-5.858 1c.447 1.72 2 3 3.858 3s3.411-1.28 3.858-3h2.142v.351c0 4.48-2.156 8.567-5.633 11.112l-1.674-4.463h-4.693v-7zm20.858-32c8.271 0 15 6.729 15 15s-6.729 15-15 15-15-6.729-15-15 6.729-15 15-15zm-19 8c1.148 0 2.234.495 2.989 1.342-.629 1.773-.989 3.672-.989 5.658 0 1.74.265 3.418.753 5h-6.753v-8c0-2.206 1.794-4 4-4zm-18 10c0-1.646 1-3.077 2.465-3.685.908 2.162 3.047 3.685 5.535 3.685v-2c-2.206 0-4-1.794-4-4s1.794-4 4-4 4 1.794 4 4v8h-12zm-6 14.15v-6.303l4-.667v7.171c0 .154.014.305.018.458zm6 .201v-.351h2.142c.447 1.72 2 3 3.858 3s3.411-1.28 3.858-3h2.142v7h-4.693l-1.674 4.463c-3.477-2.545-5.633-6.632-5.633-11.112zm8.786 14.965c1.361.454 2.779.684 4.214.684s2.853-.23 4.214-.684c.073-.024.141-.056.214-.081l.487 2.436-.5.5c-1.18 1.18-2.748 1.829-4.415 1.829s-3.235-.649-4.414-1.828l-.5-.5.487-2.436c.072.025.14.056.213.08zm-2.14 3.744.526.526c1.557 1.557 3.626 2.414 5.828 2.414s4.271-.857 5.828-2.414l.526-.526 4.646.664v6.276h-22v-6.276zm-12.646 6.144c0-2.472 1.846-4.6 4.293-4.95l1.707-.244v5.99h-6zm38 .796h-6v-5.99l1.707.244c2.447.35 4.293 2.478 4.293 4.95zm8-3c0 1.654-1.346 3-3 3h-3v-.796-18.204c0-.551.449-1 1-1h1 2 1c.551 0 1 .449 1 1z"/></g></g></svg>